<svg width="98" height="16" viewBox="0 0 98 16" fill="none" xmlns="http://www.w3.org/2000/svg">
<g clip-path="url(#clip0_2224_670)">
<path d="M9.90352 0.5625C9.7379 0.21875 9.3879 0 9.00352 0C8.61915 0 8.27227 0.21875 8.10352 0.5625L6.09415 4.69688L1.60665 5.35938C1.23165 5.41562 0.919147 5.67812 0.803522 6.0375C0.687897 6.39687 0.781647 6.79375 1.0504 7.05937L4.30665 10.2812L3.5379 14.8344C3.4754 15.2094 3.63165 15.5906 3.94102 15.8125C4.2504 16.0344 4.65977 16.0625 4.99727 15.8844L9.00665 13.7437L13.016 15.8844C13.3535 16.0625 13.7629 16.0375 14.0723 15.8125C14.3816 15.5875 14.5379 15.2094 14.4754 14.8344L13.7035 10.2812L16.9598 7.05937C17.2285 6.79375 17.3254 6.39687 17.2066 6.0375C17.0879 5.67812 16.7785 5.41562 16.4035 5.35938L11.9129 4.69688L9.90352 0.5625Z" fill="#999999"/>
</g>
<g clip-path="url(#clip1_2224_670)">
<path d="M29.9035 0.5625C29.7379 0.21875 29.3879 0 29.0035 0C28.6191 0 28.2723 0.21875 28.1035 0.5625L26.0941 4.69688L21.6066 5.35938C21.2316 5.41562 20.9191 5.67812 20.8035 6.0375C20.6879 6.39687 20.7816 6.79375 21.0504 7.05937L24.3066 10.2812L23.5379 14.8344C23.4754 15.2094 23.6316 15.5906 23.941 15.8125C24.2504 16.0344 24.6598 16.0625 24.9973 15.8844L29.0066 13.7437L33.016 15.8844C33.3535 16.0625 33.7629 16.0375 34.0723 15.8125C34.3816 15.5875 34.5379 15.2094 34.4754 14.8344L33.7035 10.2812L36.9598 7.05937C37.2285 6.79375 37.3254 6.39687 37.2066 6.0375C37.0879 5.67812 36.7785 5.41562 36.4035 5.35938L31.9129 4.69688L29.9035 0.5625Z" fill="#999999"/>
</g>
<g clip-path="url(#clip2_2224_670)">
<path d="M49.9035 0.5625C49.7379 0.21875 49.3879 0 49.0035 0C48.6191 0 48.2723 0.21875 48.1035 0.5625L46.0941 4.69688L41.6066 5.35938C41.2316 5.41562 40.9191 5.67812 40.8035 6.0375C40.6879 6.39687 40.7816 6.79375 41.0504 7.05937L44.3066 10.2812L43.5379 14.8344C43.4754 15.2094 43.6316 15.5906 43.941 15.8125C44.2504 16.0344 44.6598 16.0625 44.9973 15.8844L49.0066 13.7437L53.016 15.8844C53.3535 16.0625 53.7629 16.0375 54.0723 15.8125C54.3816 15.5875 54.5379 15.2094 54.4754 14.8344L53.7035 10.2812L56.9598 7.05937C57.2285 6.79375 57.3254 6.39687 57.2066 6.0375C57.0879 5.67812 56.7785 5.41562 56.4035 5.35938L51.9129 4.69688L49.9035 0.5625Z" fill="#999999"/>
</g>
<g clip-path="url(#clip3_2224_670)">
<path d="M69.9035 0.5625C69.7379 0.21875 69.3879 0 69.0035 0C68.6191 0 68.2723 0.21875 68.1035 0.5625L66.0941 4.69688L61.6066 5.35938C61.2316 5.41562 60.9191 5.67812 60.8035 6.0375C60.6879 6.39687 60.7816 6.79375 61.0504 7.05937L64.3066 10.2812L63.5379 14.8344C63.4754 15.2094 63.6316 15.5906 63.941 15.8125C64.2504 16.0344 64.6598 16.0625 64.9973 15.8844L69.0066 13.7437L73.016 15.8844C73.3535 16.0625 73.7629 16.0375 74.0723 15.8125C74.3816 15.5875 74.5379 15.2094 74.4754 14.8344L73.7035 10.2812L76.9598 7.05937C77.2285 6.79375 77.3254 6.39687 77.2066 6.0375C77.0879 5.67812 76.7785 5.41562 76.4035 5.35938L71.9129 4.69688L69.9035 0.5625Z" fill="#999999"/>
</g>
<g clip-path="url(#clip4_2224_670)">
<path d="M89.9035 0.5625C89.7379 0.21875 89.3879 0 89.0035 0C88.6191 0 88.2723 0.21875 88.1035 0.5625L86.0941 4.69688L81.6066 5.35938C81.2316 5.41562 80.9191 5.67812 80.8035 6.0375C80.6879 6.39687 80.7816 6.79375 81.0504 7.05937L84.3066 10.2812L83.5379 14.8344C83.4754 15.2094 83.6316 15.5906 83.941 15.8125C84.2504 16.0344 84.6598 16.0625 84.9973 15.8844L89.0066 13.7437L93.016 15.8844C93.3535 16.0625 93.7629 16.0375 94.0723 15.8125C94.3816 15.5875 94.5379 15.2094 94.4754 14.8344L93.7035 10.2812L96.9598 7.05937C97.2285 6.79375 97.3254 6.39687 97.2066 6.0375C97.0879 5.67812 96.7785 5.41562 96.4035 5.35938L91.9129 4.69688L89.9035 0.5625Z" fill="#999999"/>
</g>
<defs>
<clipPath id="clip0_2224_670">
<rect width="18" height="16" fill="white"/>
</clipPath>
<clipPath id="clip1_2224_670">
<rect width="18" height="16" fill="white" transform="translate(20)"/>
</clipPath>
<clipPath id="clip2_2224_670">
<rect width="18" height="16" fill="white" transform="translate(40)"/>
</clipPath>
<clipPath id="clip3_2224_670">
<rect width="18" height="16" fill="white" transform="translate(60)"/>
</clipPath>
<clipPath id="clip4_2224_670">
<rect width="18" height="16" fill="white" transform="translate(80)"/>
</clipPath>
</defs>
</svg>
