<svg xmlns="http://www.w3.org/2000/svg" viewBox="0 0 325.74 200.7"><defs><style>.cls-1{fill:#e40926;}.cls-2{fill:#071f2e;}</style></defs><g id="Layer_2" data-name="Layer 2"><g id="Слой_1" data-name="Слой 1"><path class="cls-1" d="M282.63,9.94a81.52,81.52,0,0,0-78,0,82.77,82.77,0,0,0-36,38.79,93.55,93.55,0,0,1,.5,67.67c20,46.21,72.36,82.06,74.49,84.18.66.61,82.11-56.8,82.11-118.39A82.21,82.21,0,0,0,282.63,9.94Zm-39,123.61a51.94,51.94,0,1,1,51.94-51.94A52,52,0,0,1,243.62,133.55Z"/><path class="cls-2" d="M83.1,1.55H81.61a81.61,81.61,0,0,0-3,163.17c1,0,2,0,3,0a81.2,81.2,0,0,0,46.24-14.39l50.41,50.33,21.28-20.29-50.71-51A81.57,81.57,0,0,0,83.1,1.55Zm50.34,85A52.08,52.08,0,0,1,85,135c-1.14.07-2.27.1-3.4.1A51.94,51.94,0,0,1,78.22,31.32c1.14-.07,2.27-.11,3.39-.11A52,52,0,0,1,133.44,86.54Z"/></g></g></svg>